<svg
  version="1.1"
  id="Layer_1"
  xmlns="http://www.w3.org/2000/svg"
  xmlns:xlink="http://www.w3.org/1999/xlink"
  x="0px"
  y="0px"
  viewBox="0 0 513.5 80"
  enable-background="new 0 0 513.5 80"
  xml:space="preserve"
>
  <g>
    <g>
      <path
        fill="#FFFFFF"
        d="M71.6,68h18.2L99.7,12H81.4L77.9,32H62L65.6,12H47.3L37.5,68h18.2l3.7-21h15.8L71.6,68z"
      />
    </g>
    <g>
      <path
        fill="#FFFFFF"
        d="M110.1,12l-5.6,31.2c-0.5,2.5-0.7,4.8-0.7,7c0,16.6,14.5,19,23.1,19c18.2,0,26-6.1,28.9-22.3l6.1-34.9
			h-18.3l-5.2,29.3c-1.7,9.2-2.8,13.9-9.7,13.9c-4.4,0-6.6-2.4-6.6-7.2c0-1.8,0.3-4.1,0.8-7l5.3-29H110.1z"
      />
    </g>
    <g>
      <path
        fill="#FFFFFF"
        d="M258.5,68h18.3l2.6-14.4h8.6c15.9,0,24.7-8.6,24.7-24.3c0-11-7.7-17.3-21-17.3h-23.3L258.5,68z
			 M286.9,39.8h-5.3l2.4-13.2h4.9c4,0,6.2,2,6.2,5.7C295.2,36.9,292,39.8,286.9,39.8z"
      />
    </g>
    <g>
      <path
        fill="#FFFFFF"
        d="M348.1,10.8c-19.9,0-31.8,12.9-31.8,34.4c0,15,9.5,24,25.3,24c19.9,0,31.8-12.9,31.8-34.4
			C373.4,19.8,364,10.8,348.1,10.8z M342.8,54.7c-4.7,0-7.5-3.4-7.5-9.1c0-2.2,0.2-4,0.6-6.2c1.4-7.3,3.7-14.1,11.2-14.1
			c4.7,0,7.5,3.4,7.5,9.1c0,2.2-0.2,4-0.6,6.2C352.5,47.9,350.2,54.7,342.8,54.7z"
      />
    </g>
    <g>
      <path
        fill="#FFFFFF"
        d="M436.9,68h18.3l7.3-41h13.8l2.6-15h-46.7l-2.6,15h14.6L436.9,68z"
      />
    </g>
    <path
      fill="#FFFFFF"
      d="M406.7,32.7c-5.8-1.8-8.1-2.6-8.1-5.3c0-1.8,1.2-3.9,4.6-3.9c2.6,0,4.7,1.5,5.6,3.6l16.1-4.3
		c-1.9-7.9-8.7-12-20.4-12c-22.1,0-23.8,14.8-23.8,19.3c0,9.2,4.9,14.8,15.4,17.7c2.8,0.7,6,1.6,6,4.7c0,2.5-1.8,3.9-4.9,3.9
		c-2.9,0-5.9-1.7-7-4.6l-15.9,4.3c1.8,8.3,9.6,13.1,21.9,13.1c9.4,0,25.1-2.5,25.1-19.4C421.2,41.3,416.5,35.7,406.7,32.7z"
    />
    <g>
      <path fill="#FFFFFF" d="M27.4,68l9.8-56H7v56L27.4,68z" />
    </g>
    <g>
      <path fill="#FFFFFF" d="M486.6,12l-9.8,56l30.2,0V12L486.6,12z" />
    </g>
    <polygon
      fill="#FFFFFF"
      points="172.4,12 162.6,68 180.8,68 183.7,51.5 199.1,51.5 201.6,37.4 186.3,37.4 188,27 209.4,27
		212.1,12 	"
    />
    <polygon
      fill="#FFFFFF"
      points="220.3,12 210.5,68 228.7,68 231.6,51.5 247,51.5 249.5,37.4 234.2,37.4 235.9,27 257.4,27 260,12
		"
    />
  </g>
  <g />
  <g />
  <g />
  <g />
  <g />
  <g />
</svg>
